<?xml version="1.0" encoding="UTF-8"?>
<svg width="512pt" height="512pt" version="1.1" viewBox="0 0 512 512" xmlns="http://www.w3.org/2000/svg">
 <path d="m470.54 106.48c-8.8008-4.4414-17.539-9-26.301-13.5-8.9414-4.6211-17.922-9.1797-26.961-13.578-2.3008-1.1211-4.6016-2.2188-6.8984-3.3008-2-0.96094-4.0195-1.8984-6.0391-2.8203-0.64062-0.30078-1.2812-0.57812-1.9219-0.85938-1.2383-0.55859-2.4805-1.0781-3.7188-1.6016-1.1992-0.5-2.4219-0.96094-3.6406-1.4219-1.1992-0.44141-2.4219-0.85938-3.6406-1.2383-1.2383-0.37891-2.5-0.73828-3.7812-1.0195-0.92188-0.21875-1.8398-0.39844-2.7617-0.55859-1.4414-0.23828-2.8789-0.44141-4.3203-0.51953-1.6211-0.10156-3.2617-0.10156-4.8789 0.019531-1.8398 0.14062-3.6797 0.44141-5.4609 0.89844-0.98047 0.26172-1.9414 0.55859-2.8789 0.89844-0.98047 0.35938-1.9414 0.78125-2.8789 1.2617-1.9219 0.96094-3.7188 2.1406-5.3594 3.5195-1.5781 1.3203-3.0195 2.8008-4.2812 4.3984-1.1406 1.4414-2.1211 3-2.9805 4.6211-0.73828 1.4219-1.3789 2.8789-1.8984 4.3789-0.46094 1.3203-0.85938 2.6602-1.1797 4-0.14062 0.62109-0.28125 1.2383-0.39844 1.8789 0 0.039062-0.019531 0.078125-0.019531 0.12109-57.297-32.359-127.38-32.359-184.68 0 0-0.039063-0.019531-0.078125-0.019531-0.12109-0.12109-0.62109-0.26172-1.2617-0.39844-1.8789-0.32031-1.3594-0.71875-2.6992-1.1797-4-0.53906-1.5-1.1602-2.9609-1.8984-4.3789-0.85937-1.6211-1.8398-3.1797-2.9805-4.6211-1.2617-1.6211-2.6992-3.1016-4.2812-4.3984-1.6406-1.3594-3.4414-2.5391-5.3594-3.5195-0.94141-0.48047-1.8984-0.89844-2.8789-1.2617-0.94141-0.35938-1.8984-0.66016-2.8789-0.89844-1.7812-0.46094-3.6211-0.76172-5.4609-0.89844-1.6211-0.12109-3.2383-0.12109-4.8789-0.019531-1.4414 0.10156-2.8984 0.28125-4.3203 0.51953-0.92188 0.16016-1.8398 0.35938-2.7617 0.55859-1.2617 0.30078-2.5195 0.64062-3.7812 1.0195-1.2188 0.37891-2.4414 0.80078-3.6406 1.2383-1.2188 0.44141-2.4414 0.92187-3.6406 1.4219-1.2617 0.51953-2.5 1.0391-3.7188 1.6016-0.64062 0.28125-1.2812 0.57812-1.9219 0.85938-2.0195 0.92188-4.0391 1.8594-6.0391 2.8203-2.3008 1.1016-4.6016 2.1992-6.8984 3.3008-9.0586 4.3984-18.02 8.9805-26.961 13.578-8.7617 4.5195-17.5 9.0586-26.301 13.5-10.922 5.5195-15.48 18.719-10.281 29.801 0.83984 1.8008 1.7812 3.5586 2.8008 5.2812 1 1.6797 2.0781 3.3203 3.1992 4.8984 2.2812 3.2383 4.7617 6.3203 7.3789 9.3008 2.6797 3.0586 5.5 5.9805 8.418 8.8008 3.0195 2.9219 6.1602 5.7383 9.3789 8.4609 3.2383 2.7188 6.582 5.3398 10 7.8398 2.8789 2.1016 5.8398 4.1211 8.8594 6-48.418 123.2 42.398 256.46 174.78 256.46 132.36 0 223.18-133.28 174.78-256.46 3.0195-1.8984 5.9805-3.8984 8.8594-6 3.4219-2.5 6.7617-5.1211 10-7.8398 3.2188-2.7188 6.3594-5.5195 9.3789-8.4609 2.9219-2.8203 5.7383-5.7617 8.418-8.8008 2.6211-2.9805 5.1016-6.0586 7.3789-9.3008 1.1211-1.6016 2.1992-3.2188 3.1992-4.8984 1.0195-1.7188 1.9609-3.4609 2.8008-5.2812 5.1992-11.082 0.64062-24.281-10.281-29.801zm-414.34 27.66c-2.7188-3.7383-1.4414-9.0195 2.6797-11.141 19.32-9.8984 38.461-20.082 58.102-29.121 22.441-10.32 25.32-5.6797 25.16 14.801-0.14062 16.398 0.16016 32.961-1.7812 49.18-1.9414 16.02-13.52 22.34-29.219 18.262-16.602-4.3203-42.941-25.379-54.938-41.98zm199.8 286.56c-115.62 0-195.44-115.74-154.38-223.82 1.1406 0.37891 2.3008 0.71875 3.4609 1.0391 3 0.80078 6.0391 1.3789 9.1211 1.7188 3.1016 0.33984 6.2188 0.42188 9.3203 0.17969 3.1992-0.23828 6.3984-0.80078 9.4805-1.6992 3.1992-0.94141 6.3008-2.2812 9.1797-3.9609 2.9609-1.7383 5.6797-3.8398 8.1016-6.2812 2.3984-2.4219 4.4805-5.1211 6.2188-8.0586 1.6992-2.8594 3.0586-5.918 4.1016-9.0781 1.0195-3.1211 1.7188-6.3203 2.1406-9.5586 0.10156-0.76172 0.17969-1.5195 0.28125-2.3008 0.12109-1.1406 0.23828-2.2812 0.35937-3.4219 0.21875-2.2383 0.39844-4.4609 0.53906-6.6992 0.30078-4.3789 0.48047-8.7812 0.60156-13.16 0.12109-4.2383 0.16016-8.5 0.19922-12.738 0.019532-1.6602 0.019532-3.3008 0.019532-4.9609 55.32-36.699 127.26-36.699 182.58 0 0 1.6602 0.019532 3.3008 0.019532 4.9609 0.019531 4.2383 0.078125 8.5 0.19922 12.738 0.12109 4.3984 0.30078 8.7812 0.60156 13.16 0.14062 2.2383 0.32031 4.4805 0.53906 6.6992 0.12109 1.1406 0.21875 2.2812 0.35937 3.4219 0.078126 0.76172 0.16016 1.5195 0.26172 2.3008 0.42188 3.2383 1.1211 6.4609 2.1406 9.5586 1.0391 3.1602 2.3984 6.2188 4.1016 9.0781 1.7383 2.9219 3.8203 5.6406 6.2188 8.0586 2.4219 2.4219 5.1406 4.5391 8.1016 6.2812 2.8789 1.6992 5.9805 3.0195 9.1797 3.9609 3.0781 0.92188 6.2812 1.4805 9.4805 1.6992 3.1016 0.21875 6.2188 0.14063 9.3203-0.17969 3.0781-0.33984 6.1406-0.92188 9.1211-1.7188 1.1602-0.32031 2.3203-0.66016 3.4609-1.0391 41.02 108.08-38.801 223.82-154.42 223.82zm199.8-286.56c-12 16.602-38.34 37.66-54.938 41.961-15.699 4.0781-27.281-2.2188-29.219-18.262-1.9414-16.238-1.6406-32.781-1.7812-49.18-0.17969-20.48 2.7188-25.121 25.16-14.801 19.641 9.0391 38.781 19.238 58.102 29.121 4.1211 2.1406 5.3984 7.418 2.6797 11.16z" fill="#fdfbe7"/>
 <path d="m321.44 229.02c-3.6016 5.1211-2.3594 12.18 2.7617 15.762 5.1211 3.6016 12.18 2.3594 15.762-2.7617 7.6992-10.98 24.18-10.32 31 1.2188 8.1602 12.68 26.641 1.7812 19.5-11.5-15.18-25.719-51.883-27.16-69.02-2.7188z" fill="#fdfbe7"/>
 <path d="m187.8 244.8c5.1211-3.6016 6.3594-10.66 2.7617-15.762-17.16-24.441-53.844-23-69.02 2.7383-7.1602 13.281 11.34 24.18 19.5 11.5 6.8203-11.559 23.281-12.199 30.98-1.2188 3.6016 5.0781 10.66 6.3203 15.781 2.7383z" fill="#fdfbe7"/>
 <path d="m329.66 279.66c-2.1602-4.9609-5.0195-9.6016-8.418-13.801-3.4805-4.2812-7.5586-8.1016-12.039-11.34-1.5195-1.1016-3.0781-2.1211-4.6797-3.1016-1.3984-0.85938-2.8398-1.6797-4.3008-2.4414-5.7383-3.0195-11.859-5.3203-18.16-6.9414-17.879-4.6211-34.262-4.6211-52.141 0-3.1211 0.80078-6.1992 1.7812-9.2188 2.9219-3.0586 1.1602-6.0391 2.5-8.9219 4-1.4609 0.76172-2.8984 1.5781-4.3008 2.4414-1.6016 0.98047-3.1602 2-4.6797 3.1016-4.4805 3.2383-8.5391 7.0391-12.039 11.34-3.4219 4.1992-6.2617 8.8398-8.418 13.801-1.0781 2.4609-1.9805 5-2.6797 7.6016-0.71875 2.6016-1.2383 5.2383-1.5781 7.9219-0.67969 5.3984-0.55859 10.898 0.35937 16.281 0.48047 2.7188 1.1602 5.4219 2.0195 8.0391 0.89844 2.6602 1.9805 5.2617 3.2617 7.7617 1.3008 2.5391 2.8008 4.9805 4.4414 7.3008 0.80078 1.1016 1.6211 2.1992 2.5 3.2383 0.35938 0.42188 0.71875 0.85938 1.0781 1.2617 1.4219 1.6211 2.9609 3.1211 4.5781 4.5391 1.5586 1.3789 3.1992 2.6602 4.8984 3.8594 1.6797 1.1797 3.4219 2.2617 5.1992 3.2617 1.7812 1 3.6211 1.8984 5.5195 2.7188 1.9219 0.82031 3.8594 1.5391 5.8594 2.1406 1.0195 0.30078 2.0586 0.57812 3.1016 0.82031 1.3789 0.32031 2.7812 0.62109 4.1797 0.85938 2.7188 0.48047 5.4609 0.85938 8.1992 1.1406 0.078125 0.019531 0.16016 0.019531 0.23828 0.039062 0.078125 0 0.16016 0.019531 0.23828 0.019531 14.879 1.1992 29.602 1.1992 44.461 0 0.078125 0 0.16016-0.019531 0.23828-0.019531 0.10156-0.019531 0.17969-0.019531 0.26172-0.019531 2.7383-0.28125 5.4805-0.64062 8.1992-1.1406 0.71875-0.12109 1.4219-0.26172 2.1406-0.42188 0.67969-0.14062 1.3789-0.28125 2.0586-0.44141 1.0391-0.23828 2.0586-0.51953 3.1016-0.82031 2-0.60156 3.9609-1.3203 5.8594-2.1406 1.8789-0.80078 3.7188-1.7188 5.5195-2.7188 1.7812-1 3.5195-2.0781 5.1992-3.2617 1.6992-1.1992 3.3398-2.4805 4.8984-3.8594 1.6211-1.4219 3.1602-2.9414 4.5781-4.5391 0.35937-0.42188 0.71875-0.83984 1.0781-1.2617 0.85938-1.0391 1.6992-2.1406 2.5-3.2383 1.6602-2.3203 3.1406-4.7617 4.4414-7.3008 1.2812-2.5 2.3789-5.1016 3.2617-7.7617 0.87891-2.6211 1.5586-5.3203 2.0195-8.0391 0.92188-5.3594 1.0391-10.859 0.35938-16.281-0.67969-5.3594-2.1211-10.578-4.2812-15.52zm-25.719 43.621c-4.3203 5.2617-11.539 9.6016-18.18 11.102-3.0781 0.69922-6.1992 1.1602-9.3594 1.5-13.641 1.1016-27.16 1.1016-40.801 0-3.1602-0.32031-6.3008-0.78125-9.3594-1.5-6.6406-1.5195-13.859-5.8398-18.18-11.102-13.379-16.281-8.9609-38.762 8.8203-51 5.5195-3.8008 11.898-6.5586 18.719-8.3203 6.7383-1.7383 13.441-2.6016 20.398-2.6016 6.9609 0 13.66 0.85938 20.398 2.6016 6.8203 1.7617 13.199 4.5391 18.719 8.3203 17.801 12.238 22.199 34.719 8.8203 51z" fill="#fdfbe7"/>
 <path d="m230.36 288.12c-7.6211 0.37891-13.5 6.8594-13.141 14.48 0.37891 7.6211 6.8594 13.5 14.48 13.141 7.6211-0.37891 13.5-6.8594 13.141-14.48-0.35938-7.6406-6.8398-13.52-14.48-13.141z" fill="#fdfbe7"/>
 <path d="m281.62 288.12c-7.6211-0.37891-14.121 5.5-14.48 13.141-0.37891 7.6211 5.5 14.121 13.141 14.48 7.6211 0.37891 14.121-5.5 14.48-13.141 0.37891-7.6211-5.5-14.121-13.141-14.48z" fill="#fdfbe7"/>
</svg>
