<?xml version="1.0" encoding="UTF-8"?>
<svg width="128pt" height="128pt" version="1.1" viewBox="0 0 128 128" xmlns="http://www.w3.org/2000/svg">
 <path d="m5.5352 51.719c1.1133 1.7695 4.3867 5.8906 11.504 7.8945 2.2031 0.62109 3.8242 1.0234 5.0117 1.3203 3.3008 0.82422 3.5703 0.89453 6.3555 3.0195 3.0039 2.2969 5.7852 5.2148 6.9531 6.5-0.75 2.8633-2.3867 8.4609-3.75 10.426-1.0938 1.5742-2.4453 4.3242-3.6406 6.75-0.80078 1.625-1.8906 3.8516-2.2852 4.3281-0.53906 0.48438-0.78516 1.1758-0.65625 1.8633 0.11328 0.60547 0.55859 1.4258 2.0156 1.8984 1.4336 0.46875 3.4336 0.52344 5.1484-0.19922l0.13672 0.19922c0.33594 0.48438 0.88672 0.76953 1.4805 0.73828 0.58984-0.023437 1.1211-0.35156 1.4102-0.86328l3.6992-6.5352c0.88672-0.875 5.1992-5.1094 8.8789-8.0781l5.8398-4.7188c2.9102 0.10156 15.141 0.55078 22.605 1.1094 8.9609 0.67578 21.934-3.0352 26.316-5.8711 1.3516-0.875 1.7812-0.82031 1.7852-0.82031 0.25391 0.11328 0.80859 1.0898 1.1797 1.7344 0.35547 0.625 0.76172 1.3359 1.2734 2.1016 0.85547 1.2695 1.8047 2.6016 2.7266 3.8867 1.6133 2.2656 3.1406 4.4062 3.9258 5.8711 0.94922 1.7852 0.67578 7.4453 0.42188 8.5312-0.12891 0.52344-0.375 0.84375-0.37109 0.84375-0.35156 0.41016-0.48828 0.96484-0.37109 1.4844 0.12109 0.52344 0.48438 0.96484 0.97656 1.1836 0.18359 0.078125 1.3789 0.57812 2.8633 0.57812 0.66406 0 1.3867-0.10156 2.0938-0.38672 0.80078-0.32031 1.4883-0.83594 2.0469-1.5156l0.53125 0.20312c0.52344 0.20313 1.1133 0.13672 1.5859-0.17969 0.46484-0.32031 0.74609-0.84375 0.74609-1.4102v-6.6133c0.074219-1.4766 0.32422-8.3555-1.3633-11.289-0.69922-1.2109 0.066406-4.375 0.73438-7.1641 0.41406-1.7344 0.85156-3.5234 1.1016-5.3086 0.51563-3.6602 0.72656-9.1406-1.1953-14.434-0.91406-2.5195-2.2383-4.7266-3.9336-6.6055 0.69141-0.19922 1.3203-0.50391 1.8555-0.90625 1.2617-0.94141 1.9492-2.3594 1.9492-4 0-0.94141-0.76562-1.7031-1.7031-1.7031-0.94141 0-1.7031 0.76562-1.7031 1.7031 0 0.56641-0.18359 0.96875-0.57812 1.2656-0.78906 0.58984-2.2617 0.69141-3.7734 0.26953-2.5859-1.6797-5.6641-2.8906-9.2031-3.5742-12.129-2.3438-20.969-1.1484-29.52 0.003906-5.1211 0.69531-9.9492 1.3516-15.504 1.3047-6.4883-0.050782-10.785-0.57422-14.934-1.0859-5.1094-0.625-9.9492-1.2148-17.801-0.625-1.125-1.3711-2.5508-2.7617-4.3008-3.6055-0.30859-0.14844-0.66016-0.19922-0.99609-0.14453-1.5859 0.24609-3.0938 1.6484-2.7656 3.7695 0.14453 0.93359 0.30859 2.4258 0.42188 3.4414-3.8867 2.1914-8.3633 4.3438-9.4531 4.3438-2.375 0-2.6836-0.066407-3.1016-0.36328-0.98438-0.71484-2.2148-0.85156-3.1992-0.35156-0.81641 0.41406-1.7812 1.3906-1.7812 3.6797l-0.003906 0.53125c-0.011718 1.8906-0.019531 3.6758 1.125 4.8242 0.26172 0.27344 0.64844 0.57031 1.2031 0.74609zm1.0781-5.5391v-0.55078c0-0.10547 0.003907-0.19922 0.011719-0.28125 1.2461 0.72656 2.5234 0.72656 4.6602 0.72656 2.6914 0 9.9609-4.0938 12.121-5.3438 0.57812-0.33594 0.91016-0.98047 0.83984-1.6445-0.011719-0.10938-0.23438-2.3633-0.45312-4.0117 0.92969 0.71484 1.75 1.6562 2.4336 2.5586 0.015626 0.019532 0.023438 0.035157 0.039063 0.054688 0.46875 0.625 0.875 1.2305 1.2109 1.7266 0.22656 0.32813 0.41406 0.61328 0.57813 0.84375 0.55469 0.76172 1.6211 0.92969 2.3789 0.375 0.76172-0.55469 0.92969-1.6211 0.375-2.3789-0.023438-0.035156-0.054688-0.074218-0.085938-0.12109 6.2852-0.32422 10.391 0.17578 15.047 0.74609 4.0508 0.49609 8.6367 1.0547 15.324 1.1094 5.7891 0.046875 10.977-0.65625 15.988-1.3359 8.2734-1.1211 16.828-2.2812 28.41-0.039063 16.664 3.2266 16.441 17.969 15.566 24.16-0.23047 1.6211-0.64062 3.3281-1.0391 4.9844-0.94141 3.9062-1.75 7.2812-0.375 9.6719 0.89062 1.5469 1.0703 6.4609 0.91406 9.4531 0 0.03125-0.003906 0.058594-0.003906 0.089844v4.2305c-0.73047-0.070313-1.4336 0.33594-1.7344 1.0352-0.34375 0.81641-0.82812 1.1953-1.6133 1.2539 0.25-1.3398 0.82422-7.8594-0.75-10.816-0.88672-1.6602-2.4766-3.8906-4.1602-6.25-0.90625-1.2695-1.8398-2.5781-2.6758-3.8086-0.44531-0.65625-0.79688-1.2812-1.1406-1.8789-0.86328-1.5195-1.6797-2.9531-3.3242-3.3555-0.27344-0.070312-0.55469-0.09375-0.82422-0.09375-1.3242 0-2.6094 0.70313-3.625 1.3594-3.8984 2.5234-16.043 5.9492-24.203 5.3359-8.5469-0.64453-23.234-1.1367-23.387-1.1406-0.39844-0.011719-0.80859 0.12109-1.125 0.37891l-6.3359 5.1133c-4.2461 3.4297-9.1055 8.2812-9.3086 8.4844-0.10938 0.10938-0.19922 0.23438-0.28125 0.36328l-2.5703 4.5469c-0.19141-0.10547-0.40625-0.17578-0.625-0.19922-0.48828-0.054688-0.98438 0.10938-1.3516 0.44922-0.57812 0.53906-1.4883 0.69922-2.2812 0.68359 0.44922-0.82031 1.0117-1.9453 1.7852-3.5234 1.1406-2.3164 2.4297-4.9453 3.3789-6.3086 2.1484-3.0938 4.2461-11.48 4.4805-12.426 0.12891-0.53906-0.003906-1.1055-0.36328-1.5195-0.15625-0.17969-3.8203-4.3945-8.0508-7.6289-3.25-2.4844-3.9492-2.7031-7.6016-3.6211-1.2305-0.30469-2.7539-0.69141-4.9141-1.2969-7.4219-2.0898-9.7109-6.6914-9.8008-6.8711-0.26562-0.57031-0.81641-0.94531-1.4336-0.98438-0.11328-0.48438-0.10938-1.5664-0.10547-2.3086zm94.789 44.641c-0.003906 0 0.26953-0.30078 0.44922-0.81641 0.35156-1.0547 1.1367-6.6719 0.34375-8.5312-0.57812-1.375-1.7344-3.3789-2.8633-5.3164-0.47656-0.81641-0.19922-1.8555 0.60938-2.3359 0.81641-0.47656 1.8594-0.19922 2.3281 0.61328 1.1914 2.0352 2.4062 4.1484 3.0664 5.7109 1.3047 3.0859 0.14453 9.5234-0.22656 10.84h0.03125c0.76953 0 1.2852-0.33984 1.6914-1.1055 0.35938-0.67188 1.1016-1.0117 1.8203-0.875l0.37891-4.2109c0.085938-0.94141 0.91016-1.625 1.8516-1.5508 0.93359 0.085937 1.6289 0.91406 1.5469 1.8516l-0.59375 6.6367c-0.050782 0.55859-0.375 1.0586-0.87109 1.3398-0.49609 0.27344-1.0898 0.28906-1.5898 0.035157l-0.51172-0.25391c-0.60938 0.62891-1.3438 1.0781-2.1719 1.3242-0.53125 0.15625-1.0586 0.21875-1.5586 0.21875-1.7383 0-3.1719-0.75391-3.3711-0.85938-0.46875-0.26172-0.78906-0.73047-0.86328-1.2656-0.070313-0.53906 0.12109-1.0781 0.50391-1.4531zm-59.395 0s0.26953-0.30078 0.44922-0.81641c0.078125-0.23438 0.33984-1.4688 0.51953-3.1367 0.10156-0.93359 0.94531-1.6133 1.8789-1.5117 0.93359 0.10156 1.6133 0.94141 1.5156 1.8789-0.16016 1.4961-0.42578 3.0195-0.64453 3.7461h0.023438c0.77344 0 1.2852-0.33984 1.6914-1.1055 0.35938-0.67188 1.1055-1.0117 1.8203-0.875l0.37891-4.2109c0.011719-0.10547 0.03125-0.21094 0.058594-0.30859 0.003906-0.019531 0.51172-1.8164 0.61328-3.1094 0.078125-0.94141 0.91016-1.6289 1.8398-1.5547 0.94141 0.078125 1.6367 0.89844 1.5586 1.8398-0.11328 1.3867-0.55078 3.0703-0.69141 3.5898l-0.57812 6.4805c-0.050781 0.55859-0.375 1.0586-0.87109 1.3398-0.49609 0.27344-1.0898 0.28906-1.5898 0.035156l-0.51172-0.25391c-0.60938 0.62891-1.3438 1.0781-2.1719 1.3242-0.53125 0.15625-1.0586 0.21875-1.5586 0.21875-1.7383 0-3.1719-0.75391-3.3711-0.85938-0.46875-0.26172-0.78906-0.73047-0.86328-1.2656-0.074218-0.53516 0.10938-1.0742 0.49609-1.4492z" fill="#fefce8"/>
</svg>
